<?xml version="1.0" encoding="utf-8"?>
<!-- Generator: Adobe Illustrator 27.2.0, SVG Export Plug-In . SVG Version: 6.00 Build 0)  -->
<svg version="1.1" id="레이어_1" xmlns="http://www.w3.org/2000/svg" xmlns:xlink="http://www.w3.org/1999/xlink" x="0px"
	 y="0px" viewBox="0 0 70 70" style="enable-background:new 0 0 70 70;" xml:space="preserve">
<style type="text/css">
	.st0{fill:#555555;}
</style>
<g>
	<path class="st0" d="M58.1,43.3c-0.5-0.5-1.2-0.5-2-0.3c0-0.2,0.1-0.3,0.1-0.5c0-0.5-0.2-1.2-1-1.8c-1-0.8-2.5-0.1-5,1
		c-1.6,0.7-3.6,1.5-5.8,2.1c-0.1-0.1-0.2-0.3-0.3-0.4l1.8-1.8c0.2-0.2,0.2-0.4,0.2-0.7c-0.1-0.2-0.2-0.4-0.5-0.5
		c-1.8-0.7-4.6-1.8-5.2-2.4c-1.3-1.3-1.3-3.4,0-4.7c1.3-1.3,3.4-1.3,4.7,0c0.6,0.6,1.7,3.4,2.4,5.2c0.1,0.2,0.3,0.4,0.5,0.5
		c0.2,0.1,0.5,0,0.7-0.2l6.9-6.9c0.3-0.3,0.3-0.7,0-1l-6.1-6.1c1.5-0.6,3.9-1.6,4.7-2.3c0.9-0.9,1.4-2.1,1.4-3.4
		c0-1.3-0.5-2.5-1.4-3.4c-0.9-0.9-2.1-1.4-3.4-1.4c-1.3,0-2.5,0.5-3.4,1.4c-0.7,0.7-1.7,3.2-2.3,4.7l-6-6c-0.3-0.3-0.7-0.3-1,0
		l-6.1,6.1c-0.6-1.5-1.6-3.9-2.3-4.7c-0.9-0.9-2.1-1.4-3.4-1.4c-1.3,0-2.5,0.5-3.4,1.4c-0.9,0.9-1.4,2.1-1.4,3.4
		c0,1.3,0.5,2.5,1.4,3.4c0.7,0.7,3.2,1.7,4.7,2.3l-6,6c-0.3,0.3-0.3,0.7,0,1l7.8,7.8c-2-0.5-5.3-0.8-11.5-0.8h-6.1
		c-0.4,0-0.7,0.3-0.7,0.7v13.1c0,0.4,0.3,0.7,0.7,0.7h6c0.9,0.3,7.1,2.2,15.1,2.2c7.5,0,16.5-1.7,24.4-7.9c0.2-0.1,1.7-1.2,1.8-2.7
		C59,44.7,58.9,44,58.1,43.3z M17.1,52.1h-4.7V40.4h4.7V52.1z M44.8,45.2c2.3-0.7,4.3-1.5,5.9-2.2c1.3-0.6,3.2-1.4,3.5-1.1
		c0.4,0.3,0.4,0.5,0.4,0.6c0,0.4-0.4,1-0.8,1.3c-0.2,0.1-0.3,0.1-0.5,0.2c-2,0.8-4.7,2-8.6,3c0.1-0.2,0.1-0.5,0.1-0.7
		C44.9,46,44.9,45.6,44.8,45.2z M23.1,31.5l6.3-6.3c0.2-0.2,0.2-0.4,0.2-0.7c-0.1-0.2-0.2-0.4-0.5-0.5c-1.8-0.7-4.6-1.8-5.2-2.4
		c-0.6-0.6-1-1.5-1-2.3c0-0.9,0.3-1.7,1-2.3c1.2-1.2,3.4-1.2,4.7,0c0.6,0.6,1.7,3.4,2.4,5.2c0.1,0.2,0.3,0.4,0.5,0.5
		c0.2,0.1,0.5,0,0.7-0.2l6.3-6.3l6.3,6.3c0.2,0.2,0.4,0.2,0.7,0.2c0.2-0.1,0.4-0.2,0.5-0.5c0.7-1.8,1.8-4.6,2.4-5.2
		c1.2-1.2,3.4-1.2,4.7,0c0.6,0.6,1,1.5,1,2.3c0,0.9-0.3,1.7-1,2.3c-0.6,0.6-3.4,1.7-5.2,2.4c-0.2,0.1-0.4,0.3-0.5,0.5
		c-0.1,0.2,0,0.5,0.2,0.7l6.3,6.3L48.4,37c-0.6-1.5-1.6-3.9-2.3-4.7c-1.9-1.9-4.9-1.9-6.7,0c-0.9,0.9-1.4,2.1-1.4,3.4
		c0,1.3,0.5,2.5,1.4,3.4c0.7,0.7,3.2,1.7,4.7,2.3l-1.2,1.2c-0.7-0.3-1.3-0.2-1.4-0.2c-5.6,0.1-7.3-0.4-8.5-1L23.1,31.5z M56.4,46.7
		c-14.9,11.8-34.5,6.6-37.8,5.6V40.4c9.9,0,11.6,1,13,1.9c1.5,0.9,2.8,1.6,9.9,1.5c0,0,0.8,0,1.4,0.5c0.4,0.4,0.6,1.1,0.5,1.9
		c0,0.2-0.1,0.9-1.3,1.4c0,0,0,0,0,0c0,0,0,0,0,0c-1.4,0.5-4.4,1-10.9,0.1c-0.4-0.1-0.8,0.2-0.8,0.6c-0.1,0.4,0.2,0.8,0.6,0.8
		c2.5,0.3,4.7,0.5,6.5,0.5c2.2,0,3.9-0.2,5.1-0.7c0,0,0,0,0,0c5.4-1.1,9-2.6,11.4-3.6c1.5-0.6,2.9-1.2,3.2-1
		c0.4,0.3,0.4,0.5,0.4,0.7C57.5,45.8,56.7,46.5,56.4,46.7z"/>
	<path class="st0" d="M14.8,43.6c0.4,0,0.7-0.3,0.7-0.7c0-0.4-0.3-0.7-0.7-0.7c-0.4,0-0.7,0.3-0.7,0.7
		C14.1,43.2,14.4,43.6,14.8,43.6z"/>
</g>
</svg>
