<svg width="37" height="43" viewBox="0 0 37 43" fill="none" xmlns="http://www.w3.org/2000/svg">
<g clip-path="url(#clip0_234_780)">
<path d="M21.7745 15.8119C21.6633 15.8118 21.5546 15.7787 21.4622 15.7167C21.3698 15.6547 21.2978 15.5667 21.2552 15.4637C21.2127 15.3606 21.2016 15.2473 21.2232 15.1379C21.2449 15.0286 21.2984 14.9281 21.377 14.8493C21.8452 14.3803 22.1642 13.7826 22.2936 13.1318C22.423 12.481 22.357 11.8064 22.104 11.1932C21.8509 10.58 21.4222 10.0559 20.872 9.68709C20.3219 9.31832 19.675 9.12149 19.0132 9.12149C18.3514 9.12149 17.7046 9.31832 17.1544 9.68709C16.6042 10.0559 16.1755 10.58 15.9224 11.1932C15.6694 11.8064 15.6034 12.481 15.7328 13.1318C15.8622 13.7826 16.1812 14.3803 16.6495 14.8493C16.7565 14.9563 16.8168 15.1016 16.8171 15.2532C16.8173 15.4049 16.7575 15.5504 16.6507 15.6578C16.544 15.7651 16.399 15.8256 16.2478 15.8258C16.0966 15.8261 15.9515 15.7661 15.8445 15.659C15.2187 15.0323 14.7924 14.2336 14.6195 13.364C14.4466 12.4943 14.5348 11.5927 14.8729 10.7733C15.2111 9.95393 15.784 9.25351 16.5192 8.76071C17.2544 8.26792 18.1189 8.00488 19.0032 8.00488C19.8875 8.00488 20.752 8.26792 21.4872 8.76071C22.2224 9.25351 22.7953 9.95393 23.1335 10.7733C23.4717 11.5927 23.5598 12.4943 23.3869 13.364C23.214 14.2336 22.7877 15.0323 22.162 15.659C22.0569 15.7576 21.9183 15.8123 21.7745 15.8119Z" fill="#FFD233"/>
<path d="M20.3008 26.4391C20.3008 27.0376 20.0637 27.6114 19.6418 28.0346C19.2198 28.4577 18.6475 28.6954 18.0508 28.6954V28.6954C17.454 28.6954 16.8817 28.4577 16.4598 28.0346C16.0378 27.6114 15.8008 27.0376 15.8008 26.4391V22.977C15.8008 22.3786 16.0378 21.8047 16.4598 21.3816C16.8817 20.9584 17.454 20.7207 18.0508 20.7207V20.7207C18.6475 20.7207 19.2198 20.9584 19.6418 21.3816C20.0637 21.8047 20.3008 22.3786 20.3008 22.977V26.4391Z" fill="#575757"/>
<path d="M18.0441 29.2542C17.2987 29.2536 16.584 28.9571 16.056 28.4295C15.5281 27.902 15.2299 27.1863 15.2266 26.4389V22.9768C15.2266 22.2274 15.5234 21.5088 16.0518 20.9789C16.5802 20.449 17.2968 20.1514 18.0441 20.1514C18.7913 20.1514 19.508 20.449 20.0363 20.9789C20.5647 21.5088 20.8616 22.2274 20.8616 22.9768V26.4389C20.8576 27.1861 20.5592 27.9014 20.0314 28.4288C19.5035 28.9562 18.7892 29.2529 18.0441 29.2542V29.2542ZM18.0441 21.2795C17.5954 21.2802 17.1653 21.4592 16.848 21.7774C16.5308 22.0955 16.3522 22.5268 16.3516 22.9768V26.4389C16.3516 26.889 16.5299 27.3207 16.8473 27.639C17.1647 27.9573 17.5952 28.1361 18.0441 28.1361C18.4929 28.1361 18.9234 27.9573 19.2408 27.639C19.5583 27.3207 19.7366 26.889 19.7366 26.4389V22.9768C19.7359 22.5268 19.5574 22.0955 19.2401 21.7774C18.9229 21.4592 18.4927 21.2802 18.0441 21.2795V21.2795Z" fill="white"/>
<path d="M17.3691 25.1853V12.6503C17.3691 12.4299 17.4124 12.2116 17.4966 12.0079C17.5808 11.8043 17.7042 11.6193 17.8598 11.4635C18.0154 11.3077 18.2001 11.1842 18.4033 11.1001C18.6065 11.0159 18.8242 10.9728 19.0441 10.9731V10.9731C19.2638 10.9728 19.4814 11.016 19.6845 11.1001C19.8876 11.1843 20.0721 11.3078 20.2274 11.4636C20.3828 11.6195 20.506 11.8045 20.5899 12.0081C20.6739 12.2117 20.7169 12.43 20.7166 12.6503V18.2911C20.7172 17.846 20.894 17.4194 21.208 17.105C21.5221 16.7905 21.9478 16.6139 22.3916 16.6139V16.6139C22.8351 16.6139 23.2605 16.7906 23.5742 17.1051C23.8879 17.4196 24.0641 17.8462 24.0641 18.2911V18.6671C24.0641 18.4466 24.1074 18.2283 24.1916 18.0247C24.2758 17.8211 24.3992 17.636 24.5548 17.4803C24.7104 17.3245 24.8951 17.201 25.0983 17.1169C25.3015 17.0327 25.5192 16.9896 25.7391 16.9899V16.9899C25.9588 16.9896 26.1764 17.0328 26.3795 17.1169C26.5826 17.2011 26.7671 17.3246 26.9224 17.4804C27.0778 17.6362 27.201 17.8213 27.2849 18.0249C27.3689 18.2285 27.4119 18.4468 27.4116 18.6671V20.1713C27.4122 19.7263 27.589 19.2997 27.903 18.9852C28.2171 18.6707 28.6428 18.4941 29.0866 18.4941V18.4941C29.5301 18.4941 29.9555 18.6708 30.2692 18.9854C30.5829 19.2999 30.7591 19.7265 30.7591 20.1713V26.6895C30.7591 28.4821 30.05 30.2015 28.7873 31.4705C27.5247 32.7395 25.8117 33.4544 24.0241 33.4583H22.5241C20.7365 33.4544 19.0234 32.7395 17.7608 31.4705C16.4982 30.2015 15.7891 28.4821 15.7891 26.6895V25.1853" fill="#575757"/>
<path d="M24.0241 33.9998H22.5241C20.589 33.9972 18.734 33.225 17.366 31.8527C15.9979 30.4803 15.2285 28.6199 15.2266 26.6794V25.1853C15.2266 25.0357 15.2858 24.8922 15.3913 24.7864C15.4968 24.6806 15.6399 24.6212 15.7891 24.6212C15.9382 24.6212 16.0813 24.6806 16.1868 24.7864C16.2923 24.8922 16.3516 25.0357 16.3516 25.1853V26.6895C16.3535 28.3307 17.0044 29.9042 18.1615 31.065C19.3186 32.2257 20.8874 32.8791 22.5241 32.8817H24.0241C25.6609 32.8797 27.2302 32.2266 28.3874 31.0657C29.5446 29.9048 30.1952 28.3309 30.1966 26.6895V20.1713C30.183 19.8849 30.06 19.6147 29.8531 19.4168C29.6462 19.2189 29.3712 19.1085 29.0853 19.1085C28.7994 19.1085 28.5244 19.2189 28.3175 19.4168C28.1106 19.6147 27.9876 19.8849 27.9741 20.1713V21.0412C27.9741 21.1908 27.9148 21.3343 27.8093 21.4401C27.7038 21.5458 27.5607 21.6053 27.4116 21.6053C27.2624 21.6053 27.1193 21.5458 27.0138 21.4401C26.9083 21.3343 26.8491 21.1908 26.8491 21.0412V18.6671C26.8355 18.3807 26.7125 18.1105 26.5056 17.9126C26.2987 17.7147 26.0237 17.6043 25.7378 17.6043C25.4519 17.6043 25.1769 17.7147 24.97 17.9126C24.7631 18.1105 24.6401 18.3807 24.6266 18.6671V21.0287C24.6266 21.1783 24.5673 21.3217 24.4618 21.4275C24.3563 21.5333 24.2132 21.5927 24.0641 21.5927C23.9149 21.5927 23.7718 21.5333 23.6663 21.4275C23.5608 21.3217 23.5016 21.1783 23.5016 21.0287V18.291C23.488 18.0046 23.365 17.7345 23.1581 17.5366C22.9512 17.3387 22.6762 17.2283 22.3903 17.2283C22.1044 17.2283 21.8294 17.3387 21.6225 17.5366C21.4156 17.7345 21.2926 18.0046 21.2791 18.291V21.0262C21.2791 21.1758 21.2198 21.3192 21.1143 21.425C21.0088 21.5308 20.8657 21.5902 20.7166 21.5902C20.5674 21.5902 20.4243 21.5308 20.3188 21.425C20.2133 21.3192 20.1541 21.1758 20.1541 21.0262V12.6653C20.1405 12.3789 20.0175 12.1088 19.8106 11.9109C19.6037 11.713 19.3287 11.6026 19.0428 11.6026C18.7569 11.6026 18.4819 11.713 18.275 11.9109C18.0681 12.1088 17.9451 12.3789 17.9316 12.6653V25.2003C17.9316 25.3499 17.8723 25.4934 17.7668 25.5992C17.6613 25.705 17.5182 25.7644 17.3691 25.7644C17.2199 25.7644 17.0768 25.705 16.9713 25.5992C16.8658 25.4934 16.8066 25.3499 16.8066 25.2003V12.6653C16.826 12.0836 17.0701 11.5321 17.4873 11.1275C17.9046 10.7228 18.4623 10.4966 19.0428 10.4966C19.6233 10.4966 20.181 10.7228 20.5983 11.1275C21.0156 11.5321 21.2597 12.0836 21.2791 12.6653V16.3456C21.7653 16.0701 22.3363 15.9858 22.8811 16.1091C23.4258 16.2323 23.9054 16.5543 24.2266 17.0125C24.5211 16.7471 24.8803 16.5644 25.2678 16.4828C25.6553 16.4011 26.0574 16.4235 26.4336 16.5476C26.8097 16.6718 27.1465 16.8932 27.41 17.1896C27.6734 17.4861 27.8542 17.847 27.9341 18.2359C28.2732 18.0312 28.6604 17.9205 29.0561 17.9151C29.4518 17.9097 29.8419 18.0098 30.1865 18.2051C30.531 18.4004 30.8176 18.684 31.0171 19.0268C31.2165 19.3696 31.3216 19.7594 31.3216 20.1562V26.6744C31.3209 28.6157 30.5521 30.4775 29.1839 31.8509C27.8157 33.2243 25.96 33.9972 24.0241 33.9998V33.9998Z" fill="white"/>
<path d="M31.6195 12.6306H25.0645C24.9153 12.6306 24.7722 12.5712 24.6667 12.4654C24.5612 12.3596 24.502 12.2161 24.502 12.0665C24.502 11.9169 24.5612 11.7734 24.6667 11.6677C24.7722 11.5619 24.9153 11.5024 25.0645 11.5024H31.6195C31.7686 11.5024 31.9117 11.5619 32.0172 11.6677C32.1227 11.7734 32.182 11.9169 32.182 12.0665C32.182 12.2161 32.1227 12.3596 32.0172 12.4654C31.9117 12.5712 31.7686 12.6306 31.6195 12.6306Z" fill="#FFD233"/>
<path d="M30.6343 14.4381C30.5231 14.438 30.4144 14.4049 30.322 14.3429C30.2296 14.2809 30.1576 14.1928 30.1151 14.0898C30.0725 13.9868 30.0614 13.8735 30.083 13.7641C30.1047 13.6548 30.1582 13.5543 30.2368 13.4754L31.6418 12.0665L30.2368 10.6575C30.1313 10.5515 30.0723 10.4078 30.0725 10.2581C30.0727 10.1083 30.1323 9.96479 30.238 9.85907C30.3438 9.75335 30.4871 9.6941 30.6364 9.69434C30.7857 9.69457 30.9288 9.75428 31.0343 9.86033L32.8343 11.6679C32.9396 11.7736 32.9988 11.917 32.9988 12.0665C32.9988 12.216 32.9396 12.3593 32.8343 12.4651L31.0343 14.2726C30.9817 14.3252 30.9193 14.3669 30.8507 14.3953C30.7821 14.4237 30.7085 14.4382 30.6343 14.4381Z" fill="#FFD233"/>
<path d="M6.38281 11.5024H12.9353C13.0845 11.5024 13.2276 11.5619 13.3331 11.6677C13.4386 11.7734 13.4978 11.9169 13.4978 12.0665C13.4978 12.2161 13.4386 12.3596 13.3331 12.4654C13.2276 12.5712 13.0845 12.6306 12.9353 12.6306H6.38281C6.23363 12.6306 6.09056 12.5712 5.98507 12.4654C5.87958 12.3596 5.82031 12.2161 5.82031 12.0665C5.82031 11.9169 5.87958 11.7734 5.98507 11.6677C6.09056 11.5619 6.23363 11.5024 6.38281 11.5024Z" fill="#FFD233"/>
<path d="M7.3645 9.69483C7.47568 9.69492 7.58435 9.72806 7.67676 9.79005C7.76917 9.85204 7.84119 9.94009 7.88372 10.0431C7.92625 10.1461 7.93739 10.2595 7.91573 10.3688C7.89406 10.4782 7.84058 10.5786 7.76201 10.6575L6.357 12.0664L7.76201 13.4754C7.81727 13.527 7.8616 13.5893 7.89234 13.6585C7.92309 13.7277 7.93962 13.8024 7.94095 13.8781C7.94228 13.9538 7.92839 14.0291 7.9001 14.0993C7.87181 14.1695 7.8297 14.2333 7.77628 14.2869C7.72287 14.3405 7.65924 14.3827 7.5892 14.4111C7.51916 14.4394 7.44414 14.4534 7.36861 14.452C7.29309 14.4507 7.2186 14.4341 7.1496 14.4033C7.08061 14.3725 7.0185 14.328 6.967 14.2726L5.16451 12.465C5.05917 12.3593 5 12.2159 5 12.0664C5 11.9169 5.05917 11.7736 5.16451 11.6678L6.967 9.86028C7.01902 9.80766 7.08095 9.76594 7.14919 9.73753C7.21743 9.70913 7.29062 9.69462 7.3645 9.69483V9.69483Z" fill="#FFD233"/>
</g>
<defs>
<clipPath id="clip0_234_780">
<rect width="28" height="26" fill="white" transform="translate(5 8)"/>
</clipPath>
</defs>
</svg>
